# Blender 4.3.0
# www.blender.org
mtllib tabletraining.mtl
g Cube.002_Cube.002
v 1.730463 0.727464 -2.275075
v 1.730463 0.727464 -4.775075
v 1.730463 0.632414 -2.275075
v 1.730463 0.632414 -4.775075
v 1.710463 0.727464 -2.275075
v 1.710463 0.727464 -4.775075
v 1.710463 0.632414 -2.275075
v 1.710463 0.632414 -4.775075
vn -0.0000 -0.0000 1.0000
vn -0.0000 -1.0000 -0.0000
vn -1.0000 -0.0000 -0.0000
vn -0.0000 -0.0000 -1.0000
vn 1.0000 -0.0000 -0.0000
vn -0.0000 1.0000 -0.0000
vt 0.625000 0.500000
vt 0.875000 0.500000
vt 0.875000 0.750000
vt 0.625000 0.750000
vt 0.375000 0.750000
vt 0.625000 1.000000
vt 0.375000 1.000000
vt 0.375000 0.000000
vt 0.625000 0.000000
vt 0.625000 0.250000
vt 0.375000 0.250000
vt 0.125000 0.500000
vt 0.375000 0.500000
vt 0.125000 0.750000
s 0
g Cube.002_Material.002
usemtl Material.002
f 1/1/1 5/2/1 7/3/1 3/4/1
f 4/5/2 3/4/2 7/6/2 8/7/2
f 8/8/3 7/9/3 5/10/3 6/11/3
f 6/12/4 2/13/4 4/5/4 8/14/4
f 2/13/5 1/1/5 3/4/5 4/5/5
f 6/11/6 5/10/6 1/1/6 2/13/6
g Cube.004_Cube.004
v 2.920463 2.659938 -2.600212
v 2.920463 0.159938 -2.600212
v 2.920463 2.659938 -2.525162
v 2.920463 0.159938 -2.525162
v 0.520463 2.659938 -2.600212
v 0.520463 0.159938 -2.600212
v 0.520463 2.659938 -2.525162
v 0.520463 0.159938 -2.525162
v 2.920463 0.719610 -4.765821
v 0.520463 0.719610 -4.765821
v 2.920463 0.644559 -4.765821
v 0.520463 0.644559 -4.765821
v 2.920464 0.719610 -2.265821
v 0.520463 0.719610 -2.265821
v 2.920464 0.644559 -2.265821
v 0.520463 0.644559 -2.265821
vn -0.0000 1.0000 -0.0000
vn -0.0000 -0.0000 1.0000
vn -1.0000 -0.0000 -0.0000
vn -0.0000 -1.0000 -0.0000
vn 1.0000 -0.0000 -0.0000
vn -0.0000 -0.0000 -1.0000
vt 0.625000 0.500000
vt 0.875000 0.500000
vt 0.875000 0.750000
vt 0.625000 0.750000
vt 0.375000 0.750000
vt 0.625000 1.000000
vt 0.375000 1.000000
vt 0.375000 0.000000
vt 0.625000 0.000000
vt 0.625000 0.250000
vt 0.375000 0.250000
vt 0.125000 0.500000
vt 0.375000 0.500000
vt 0.125000 0.750000
s 0
g Cube.004_Material.004
usemtl Material.004
f 9/15/7 13/16/7 15/17/7 11/18/7
f 12/19/8 11/18/8 15/20/8 16/21/8
f 16/22/9 15/23/9 13/24/9 14/25/9
f 14/26/10 10/27/10 12/19/10 16/28/10
f 10/27/11 9/15/11 11/18/11 12/19/11
f 14/25/12 13/24/12 9/15/12 10/27/12
g Cube.004_Material.003
usemtl Material.003
f 17/15/11 21/16/11 23/17/11 19/18/11
f 20/19/10 19/18/10 23/20/10 24/21/10
f 24/22/8 23/23/8 21/24/8 22/25/8
f 22/26/9 18/27/9 20/19/9 24/28/9
f 18/27/12 17/15/12 19/18/12 20/19/12
f 22/25/7 21/24/7 17/15/7 18/27/7
g Cube.005_Cube.005
v 2.874692 0.290212 -2.373201
v 2.874692 0.290212 -4.873201
v 2.874692 0.195161 -2.373201
v 2.874692 0.195161 -4.873201
v 2.854692 0.290212 -2.373201
v 2.854692 0.290212 -4.873201
v 2.854692 0.195161 -2.373201
v 2.854692 0.195161 -4.873201
v 2.874722 0.290212 -4.874449
v 0.547132 0.290212 -4.874449
v 2.874722 0.195161 -4.874449
v 0.547132 0.195161 -4.874449
v 2.874722 0.290212 -4.854449
v 0.547132 0.290212 -4.854449
v 2.874722 0.195161 -4.854449
v 0.547132 0.195161 -4.854449
v 0.566936 0.290212 -2.371409
v 0.566936 0.290212 -4.871408
v 0.566936 0.195161 -2.371409
v 0.566936 0.195161 -4.871408
v 0.546936 0.290212 -2.371409
v 0.546936 0.290212 -4.871408
v 0.546936 0.195161 -2.371409
v 0.546936 0.195161 -4.871408
v 1.728289 0.290212 -2.373202
v 1.728289 0.290212 -4.873201
v 1.728289 0.195161 -2.373202
v 1.728289 0.195161 -4.873201
v 1.708289 0.290212 -2.373202
v 1.708289 0.290212 -4.873201
v 1.708289 0.195161 -2.373202
v 1.708289 0.195161 -4.873201
vn -0.0000 -0.0000 1.0000
vn -0.0000 -1.0000 -0.0000
vn -1.0000 -0.0000 -0.0000
vn -0.0000 -0.0000 -1.0000
vn 1.0000 -0.0000 -0.0000
vn -0.0000 1.0000 -0.0000
vt 0.625000 0.500000
vt 0.875000 0.500000
vt 0.875000 0.750000
vt 0.625000 0.750000
vt 0.375000 0.750000
vt 0.625000 1.000000
vt 0.375000 1.000000
vt 0.375000 0.000000
vt 0.625000 0.000000
vt 0.625000 0.250000
vt 0.375000 0.250000
vt 0.125000 0.500000
vt 0.375000 0.500000
vt 0.125000 0.750000
s 0
g Cube.005_Material.005
usemtl Material.005
f 25/29/13 29/30/13 31/31/13 27/32/13
f 28/33/14 27/32/14 31/34/14 32/35/14
f 32/36/15 31/37/15 29/38/15 30/39/15
f 30/40/16 26/41/16 28/33/16 32/42/16
f 26/41/17 25/29/17 27/32/17 28/33/17
f 30/39/18 29/38/18 25/29/18 26/41/18
g Cube.005_Material.010
usemtl Material.010
f 33/29/17 37/30/17 39/31/17 35/32/17
f 36/33/14 35/32/14 39/34/14 40/35/14
f 40/36/13 39/37/13 37/38/13 38/39/13
f 38/40/15 34/41/15 36/33/15 40/42/15
f 34/41/16 33/29/16 35/32/16 36/33/16
f 38/39/18 37/38/18 33/29/18 34/41/18
g Cube.005_Material.009
usemtl Material.009
f 41/29/13 45/30/13 47/31/13 43/32/13
f 44/33/14 43/32/14 47/34/14 48/35/14
f 48/36/15 47/37/15 45/38/15 46/39/15
f 46/40/16 42/41/16 44/33/16 48/42/16
f 42/41/17 41/29/17 43/32/17 44/33/17
f 46/39/18 45/38/18 41/29/18 42/41/18
g Cube.005_Material.011
usemtl Material.011
f 49/29/13 53/30/13 55/31/13 51/32/13
f 52/33/14 51/32/14 55/34/14 56/35/14
f 56/36/15 55/37/15 53/38/15 54/39/15
f 54/40/16 50/41/16 52/33/16 56/42/16
f 50/41/17 49/29/17 51/32/17 52/33/17
f 54/39/18 53/38/18 49/29/18 50/41/18
g Cube.006_Cube.006
v 2.980463 0.709610 -4.815822
v 0.460463 0.709610 -4.815822
v 2.980463 0.654559 -4.815822
v 0.460463 0.654559 -4.815822
v 2.980463 0.709610 -2.215822
v 0.460463 0.709610 -2.215822
v 2.980463 0.654559 -2.215822
v 0.460463 0.654559 -2.215822
v 2.990463 2.709938 -2.590212
v 2.990463 0.109938 -2.590212
v 2.990463 2.709938 -2.535162
v 2.990463 0.109938 -2.535162
v 0.450463 2.709938 -2.590212
v 0.450463 0.109938 -2.590212
v 0.450463 2.709938 -2.535162
v 0.450463 0.109938 -2.535162
vn 1.0000 -0.0000 -0.0000
vn -0.0000 -1.0000 -0.0000
vn -0.0000 -0.0000 1.0000
vn -1.0000 -0.0000 -0.0000
vn -0.0000 -0.0000 -1.0000
vn -0.0000 1.0000 -0.0000
vt 0.625000 0.500000
vt 0.875000 0.500000
vt 0.875000 0.750000
vt 0.625000 0.750000
vt 0.375000 0.750000
vt 0.625000 1.000000
vt 0.375000 1.000000
vt 0.375000 0.000000
vt 0.625000 0.000000
vt 0.625000 0.250000
vt 0.375000 0.250000
vt 0.125000 0.500000
vt 0.375000 0.500000
vt 0.125000 0.750000
s 0
g Cube.006_Material.006
usemtl Material.006
f 57/43/19 61/44/19 63/45/19 59/46/19
f 60/47/20 59/46/20 63/48/20 64/49/20
f 64/50/21 63/51/21 61/52/21 62/53/21
f 62/54/22 58/55/22 60/47/22 64/56/22
f 58/55/23 57/43/23 59/46/23 60/47/23
f 62/53/24 61/52/24 57/43/24 58/55/24
g Cube.006_Material.001
usemtl Material.001
f 65/43/24 69/44/24 71/45/24 67/46/24
f 68/47/21 67/46/21 71/48/21 72/49/21
f 72/50/22 71/51/22 69/52/22 70/53/22
f 70/54/20 66/55/20 68/47/20 72/56/20
f 66/55/19 65/43/19 67/46/19 68/47/19
f 70/53/23 69/52/23 65/43/23 66/55/23
g Cube.007_Cube.007
v 1.730463 2.659938 -2.610212
v 1.730463 0.159938 -2.610212
v 1.730463 2.659938 -2.515162
v 1.730463 0.159938 -2.515162
v 1.710463 2.659938 -2.610212
v 1.710463 0.159938 -2.610212
v 1.710463 2.659938 -2.515162
v 1.710463 0.159938 -2.515162
vn -0.0000 1.0000 -0.0000
vn -0.0000 -0.0000 1.0000
vn -1.0000 -0.0000 -0.0000
vn -0.0000 -1.0000 -0.0000
vn 1.0000 -0.0000 -0.0000
vn -0.0000 -0.0000 -1.0000
vt 0.625000 0.500000
vt 0.875000 0.500000
vt 0.875000 0.750000
vt 0.625000 0.750000
vt 0.375000 0.750000
vt 0.625000 1.000000
vt 0.375000 1.000000
vt 0.375000 0.000000
vt 0.625000 0.000000
vt 0.625000 0.250000
vt 0.375000 0.250000
vt 0.125000 0.500000
vt 0.375000 0.500000
vt 0.125000 0.750000
s 0
g Cube.007_Material.007
usemtl Material.007
f 73/57/25 77/58/25 79/59/25 75/60/25
f 76/61/26 75/60/26 79/62/26 80/63/26
f 80/64/27 79/65/27 77/66/27 78/67/27
f 78/68/28 74/69/28 76/61/28 80/70/28
f 74/69/29 73/57/29 75/60/29 76/61/29
f 78/67/30 77/66/30 73/57/30 74/69/30
g Cube.008_Cube.008
v 1.730463 2.659938 -2.610212
v 1.730463 0.159938 -2.610212
v 1.730463 2.659938 -2.515162
v 1.730463 0.159938 -2.515162
v 1.710463 2.659938 -2.610212
v 1.710463 0.159938 -2.610212
v 1.710463 2.659938 -2.515162
v 1.710463 0.159938 -2.515162
vn -0.0000 1.0000 -0.0000
vn -0.0000 -0.0000 1.0000
vn -1.0000 -0.0000 -0.0000
vn -0.0000 -1.0000 -0.0000
vn 1.0000 -0.0000 -0.0000
vn -0.0000 -0.0000 -1.0000
vt 0.625000 0.500000
vt 0.875000 0.500000
vt 0.875000 0.750000
vt 0.625000 0.750000
vt 0.375000 0.750000
vt 0.625000 1.000000
vt 0.375000 1.000000
vt 0.375000 0.000000
vt 0.625000 0.000000
vt 0.625000 0.250000
vt 0.375000 0.250000
vt 0.125000 0.500000
vt 0.375000 0.500000
vt 0.125000 0.750000
s 0
g Cube.008_Material.008
usemtl Material.008
f 81/71/31 85/72/31 87/73/31 83/74/31
f 84/75/32 83/74/32 87/76/32 88/77/32
f 88/78/33 87/79/33 85/80/33 86/81/33
f 86/82/34 82/83/34 84/75/34 88/84/34
f 82/83/35 81/71/35 83/74/35 84/75/35
f 86/81/36 85/80/36 81/71/36 82/83/36
g Cube.015_Cube.015
v 0.618152 0.608477 -2.587579
v 0.618152 0.608477 -2.687579
v 0.618152 -0.091523 -2.587579
v 0.618152 -0.091523 -2.687579
v 0.518152 0.608477 -2.587579
v 0.518152 0.608477 -2.687579
v 0.518152 -0.091523 -2.587579
v 0.518152 -0.091523 -2.687579
v 3.000463 0.679610 -4.835821
v 0.440463 0.679610 -4.835821
v 3.000463 0.604559 -4.835821
v 0.440463 0.604559 -4.835821
v 3.000463 0.679610 -2.195822
v 0.440463 0.679610 -2.195822
v 3.000463 0.604559 -2.195822
v 0.440463 0.604559 -2.195822
v 0.607288 0.608477 -4.632545
v 0.607288 0.608477 -4.732545
v 0.607288 -0.091523 -4.632545
v 0.607288 -0.091523 -4.732545
v 0.507288 0.608477 -4.632545
v 0.507288 0.608477 -4.732545
v 0.507288 -0.091523 -4.632545
v 0.507288 -0.091523 -4.732545
v 2.912070 0.608477 -4.632545
v 2.912070 0.608477 -4.732545
v 2.912070 -0.091523 -4.632545
v 2.912070 -0.091523 -4.732545
v 2.812070 0.608477 -4.632545
v 2.812070 0.608477 -4.732545
v 2.812070 -0.091523 -4.632545
v 2.812070 -0.091523 -4.732545
v 2.927642 0.608477 -2.587579
v 2.927642 0.608477 -2.687579
v 2.927642 -0.091523 -2.587579
v 2.927642 -0.091523 -2.687579
v 2.827642 0.608477 -2.587579
v 2.827642 0.608477 -2.687579
v 2.827642 -0.091523 -2.587579
v 2.827642 -0.091523 -2.687579
vn -0.0000 -0.0000 1.0000
vn -0.0000 -1.0000 -0.0000
vn -1.0000 -0.0000 -0.0000
vn -0.0000 -0.0000 -1.0000
vn 1.0000 -0.0000 -0.0000
vn -0.0000 1.0000 -0.0000
vt 0.625000 0.500000
vt 0.875000 0.500000
vt 0.875000 0.750000
vt 0.625000 0.750000
vt 0.375000 0.750000
vt 0.625000 1.000000
vt 0.375000 1.000000
vt 0.375000 0.000000
vt 0.625000 0.000000
vt 0.625000 0.250000
vt 0.375000 0.250000
vt 0.125000 0.500000
vt 0.375000 0.500000
vt 0.125000 0.750000
s 0
g Cube.015_Material.015
usemtl Material.015
f 89/85/37 93/86/37 95/87/37 91/88/37
f 92/89/38 91/88/38 95/90/38 96/91/38
f 96/92/39 95/93/39 93/94/39 94/95/39
f 94/96/40 90/97/40 92/89/40 96/98/40
f 90/97/41 89/85/41 91/88/41 92/89/41
f 94/95/42 93/94/42 89/85/42 90/97/42
g Cube.015_Material
usemtl Material
f 97/85/41 101/86/41 103/87/41 99/88/41
f 100/89/38 99/88/38 103/90/38 104/91/38
f 104/92/37 103/93/37 101/94/37 102/95/37
f 102/96/39 98/97/39 100/89/39 104/98/39
f 98/97/40 97/85/40 99/88/40 100/89/40
f 102/95/42 101/94/42 97/85/42 98/97/42
g Cube.015_Material.012
usemtl Material.012
f 105/85/37 109/86/37 111/87/37 107/88/37
f 108/89/38 107/88/38 111/90/38 112/91/38
f 112/92/39 111/93/39 109/94/39 110/95/39
f 110/96/40 106/97/40 108/89/40 112/98/40
f 106/97/41 105/85/41 107/88/41 108/89/41
f 110/95/42 109/94/42 105/85/42 106/97/42
g Cube.015_Material.013
usemtl Material.013
f 113/85/37 117/86/37 119/87/37 115/88/37
f 116/89/38 115/88/38 119/90/38 120/91/38
f 120/92/39 119/93/39 117/94/39 118/95/39
f 118/96/40 114/97/40 116/89/40 120/98/40
f 114/97/41 113/85/41 115/88/41 116/89/41
f 118/95/42 117/94/42 113/85/42 114/97/42
g Cube.015_Material.014
usemtl Material.014
f 121/85/37 125/86/37 127/87/37 123/88/37
f 124/89/38 123/88/38 127/90/38 128/91/38
f 128/92/39 127/93/39 125/94/39 126/95/39
f 126/96/40 122/97/40 124/89/40 128/98/40
f 122/97/41 121/85/41 123/88/41 124/89/41
f 126/95/42 125/94/42 121/85/42 122/97/42
